<svg xmlns="http://www.w3.org/2000/svg" viewBox="0 0 200 200" width="200" height="200">
  <!-- Cat body -->
  <ellipse cx="100" cy="130" rx="45" ry="35" fill="#FF8C42" stroke="#000" stroke-width="2"/>

  <!-- Cat head -->
  <circle cx="100" cy="80" r="35" fill="#FF8C42" stroke="#000" stroke-width="2"/>

  <!-- Cat ears -->
  <polygon points="75,60 85,35 95,60" fill="#FF8C42" stroke="#000" stroke-width="2"/>
  <polygon points="105,60 115,35 125,60" fill="#FF8C42" stroke="#000" stroke-width="2"/>

  <!-- Inner ears -->
  <polygon points="78,55 83,42 88,55" fill="#FFB366"/>
  <polygon points="112,55 117,42 122,55" fill="#FFB366"/>

  <!-- Cat eyes -->
  <ellipse cx="90" cy="75" rx="6" ry="8" fill="#000"/>
  <ellipse cx="110" cy="75" rx="6" ry="8" fill="#000"/>
  <ellipse cx="88" cy="72" rx="2" ry="3" fill="#FFF"/>
  <ellipse cx="108" cy="72" rx="2" ry="3" fill="#FFF"/>

  <!-- Cat nose -->
  <polygon points="100,85 97,90 103,90" fill="#FF6B9D"/>

  <!-- Cat mouth -->
  <path d="M 100 90 Q 95 95 90 92" stroke="#000" stroke-width="1.5" fill="none"/>
  <path d="M 100 90 Q 105 95 110 92" stroke="#000" stroke-width="1.5" fill="none"/>

  <!-- Cat whiskers -->
  <line x1="70" y1="80" x2="55" y2="78" stroke="#000" stroke-width="1.5"/>
  <line x1="70" y1="85" x2="55" y2="85" stroke="#000" stroke-width="1.5"/>
  <line x1="130" y1="80" x2="145" y2="78" stroke="#000" stroke-width="1.5"/>
  <line x1="130" y1="85" x2="145" y2="85" stroke="#000" stroke-width="1.5"/>

  <!-- Cat tail -->
  <path d="M 145 130 Q 170 120 175 100 Q 180 80 170 60" stroke="#000" stroke-width="3" fill="none" stroke-linecap="round"/>
  <path d="M 145 130 Q 170 120 175 100 Q 180 80 170 60" stroke="#FF8C42" stroke-width="8" fill="none" stroke-linecap="round"/>

  <!-- Cat paws -->
  <ellipse cx="75" cy="165" rx="8" ry="12" fill="#FF8C42" stroke="#000" stroke-width="2"/>
  <ellipse cx="95" cy="165" rx="8" ry="12" fill="#FF8C42" stroke="#000" stroke-width="2"/>
  <ellipse cx="105" cy="165" rx="8" ry="12" fill="#FF8C42" stroke="#000" stroke-width="2"/>
  <ellipse cx="125" cy="165" rx="8" ry="12" fill="#FF8C42" stroke="#000" stroke-width="2"/>

  <!-- Paw pads -->
  <circle cx="75" cy="170" r="3" fill="#FF6B9D"/>
  <circle cx="95" cy="170" r="3" fill="#FF6B9D"/>
  <circle cx="105" cy="170" r="3" fill="#FF6B9D"/>
  <circle cx="125" cy="170" r="3" fill="#FF6B9D"/>
</svg>